<svg xmlns="http://www.w3.org/2000/svg" version="1.1" xmlns:xlink="http://www.w3.org/1999/xlink" xmlns:svgjs="http://svgjs.dev/svgjs" width="1000" height="305" viewBox="0 0 1000 305"><g transform="matrix(1,0,0,1,-0.6060606060606233,-0.5566627610552359)"><svg viewBox="0 0 396 121" data-background-color="#1e1e1e" preserveAspectRatio="xMidYMid meet" height="305" width="1000" xmlns="http://www.w3.org/2000/svg" xmlns:xlink="http://www.w3.org/1999/xlink"><g id="tight-bounds" transform="matrix(1,0,0,1,0.2400000000000091,0.22083998061535226)"><svg viewBox="0 0 395.52 120.55831620632351" height="120.55831620632351" width="395.52"><g><svg viewBox="0 0 577.5967751991304 176.05707591072394" height="120.55831620632351" width="395.52"><g transform="matrix(1,0,0,1,0,24.332056077386596)"><svg viewBox="0 0 395.52 127.39296375595075" height="127.39296375595075" width="395.52"><g id="textblocktransform"><svg viewBox="0 0 395.52 127.39296375595075" height="127.39296375595075" width="395.52" id="textblock"><g><rect width="395.52" height="96.76882407660739" fill="none" stroke-width="9.018103199999999" stroke="#c20e0e" data-fill-palette-color="none" data-stroke-palette-color="tertiary"></rect><rect width="395.52" height="30.624139679343365" y="96.76882407660739" fill="#c20e0e" data-fill-palette-color="tertiary"></rect></g><g><svg viewBox="0 0 395.52 96.76882407660739" height="96.76882407660739" width="395.52"><g transform="matrix(1,0,0,1,23.607599999999998,23.6076)"><svg width="348.3048" viewBox="3 -35.900001525878906 255.83999633789062 36.400001525878906" height="49.553624076607385" data-palette-color="#ffffff"><path d="M15.7 0L4 0 4-27.35 3-32.35 4.05-35.35 15.7-35.35 25.5-17.85 26.5-17.85 34.6-35.35 46.55-35.35 47.05-32.35 46.55-27.55 46.55 0 35.5 0 35.65-4.25 35.65-18.2 35.1-18.2 33.2-12.95 29.6-5 21.6-5 15.7-18.2 15.2-18.2 15.2-14.15 15.7 0ZM69.75 0.5L69.75 0.5Q66.55 0.5 63.37-0.28 60.2-1.05 57.57-3.05 54.95-5.05 53.35-8.6 51.75-12.15 51.75-17.7L51.75-17.7Q51.75-23.25 53.35-26.8 54.95-30.35 57.57-32.35 60.2-34.35 63.37-35.13 66.55-35.9 69.75-35.9L69.75-35.9Q72.95-35.9 76.12-35.1 79.3-34.3 81.92-32.3 84.55-30.3 86.15-26.75 87.75-23.2 87.75-17.7L87.75-17.7Q87.75-12.2 86.15-8.65 84.55-5.1 81.92-3.1 79.3-1.1 76.12-0.3 72.95 0.5 69.75 0.5ZM69.75-9.5L69.75-9.5Q73-9.5 74.65-11.48 76.3-13.45 76.3-17.7L76.3-17.7Q76.3-21.9 74.65-23.9 73-25.9 69.75-25.9L69.75-25.9Q63.25-25.9 63.25-17.7L63.25-17.7Q63.25-13.5 64.87-11.5 66.5-9.5 69.75-9.5ZM114.75 0L99.7 0 90.7-27.45 89.2-32.4 89.2-35.4 100.8-35.4 106.8-10.1 107.8-10.1 113.75-35.4 125.2-35.4 125.2-32.4 123.7-27.45 114.75 0ZM140.49 0L129.44 0 129.44-27.4 128.94-32.4 129.44-35.4 140.49-35.4 140.49 0ZM175.44 0L147.49 0 146.49-3 147.49-8 147.49-35.4 173.24-35.4 175.74-33.9 172.44-25.4 167.94-25.9 158.59-25.9 158.59-21.9 170.94-21.9 170.94-13.65 164.04-13.65 158.59-14.15 158.59-9.5 172.44-9.5 178.39-3.2 175.44 0ZM199.34 0L182.39 0 182.39-27.35 181.39-32.35 182.39-35.4 199.34-35.4Q202.89-35.4 206.21-34.73 209.54-34.05 212.16-32.2 214.79-30.35 216.34-26.9 217.89-23.45 217.89-17.95L217.89-17.95Q217.89-12.45 216.31-8.93 214.74-5.4 212.09-3.45 209.44-1.5 206.14-0.75 202.84 0 199.34 0L199.34 0ZM193.49-25.9L193.49-9.5 197.29-9.5Q200.24-9.5 202.26-10.15 204.29-10.8 205.34-12.63 206.39-14.45 206.39-17.95L206.39-17.95Q206.39-21.5 205.31-23.18 204.24-24.85 202.21-25.38 200.19-25.9 197.29-25.9L197.29-25.9 193.49-25.9ZM245.89 0L223.89 0 223.89-27.4 222.89-32.4 223.89-35.4 242.89-35.4Q248.54-35.4 251.94-33.2 255.34-31 255.34-26.5L255.34-26.5Q255.34-24.05 254.46-22.48 253.59-20.9 252.24-19.8L252.24-19.8Q253.94-19.4 255.44-18.32 256.94-17.25 257.89-15.48 258.84-13.7 258.84-11.1L258.84-11.1Q258.84-5.85 255.76-2.93 252.69 0 245.89 0L245.89 0ZM234.89-25.9L234.89-21.65 240.79-21.65Q242.49-21.65 243.24-22.18 243.99-22.7 243.99-23.8L243.99-23.8Q243.99-24.95 242.89-25.43 241.79-25.9 240.29-25.9L240.29-25.9 234.89-25.9ZM234.89-14.2L234.89-9.5 243.39-9.5Q245.39-9.5 246.19-10.13 246.99-10.75 246.99-11.8L246.99-11.8Q246.99-14.2 243.89-14.2L243.89-14.2 234.89-14.2Z" opacity="1" transform="matrix(1,0,0,1,0,0)" fill="#ffffff" class="wordmark-text-0" data-fill-palette-color="primary" id="text-0"></path></svg></g></svg></g></svg></g></svg></g><g transform="matrix(1,0,0,1,407.3238,0)"><svg viewBox="0 0 170.27297519913043 176.05707591072394" height="176.05707591072394" width="170.27297519913043"><g><svg xmlns="http://www.w3.org/2000/svg" xmlns:xlink="http://www.w3.org/1999/xlink" version="1.1" x="0" y="0" viewBox="7.487322807312012 6.065999984741211 84.02568054199219 86.87999725341797" enable-background="new 0 0 100 100" xml:space="preserve" height="176.05707591072394" width="170.27297519913043" class="icon-icon-0" data-fill-palette-color="accent" id="icon-0"><rect x="34.571" y="16.321" fill="#5e1914" width="5.716" height="5.716" data-fill-palette-color="accent"></rect><rect x="34.571" y="28.368" fill="#5e1914" width="5.716" height="5.716" data-fill-palette-color="accent"></rect><rect x="34.571" y="40.416" fill="#5e1914" width="5.716" height="5.716" data-fill-palette-color="accent"></rect><rect x="34.571" y="52.464" fill="#5e1914" width="5.716" height="5.716" data-fill-palette-color="accent"></rect><rect x="80.349" y="16.321" fill="#5e1914" width="5.716" height="5.716" data-fill-palette-color="accent"></rect><rect x="80.349" y="28.368" fill="#5e1914" width="5.716" height="5.716" data-fill-palette-color="accent"></rect><rect x="80.349" y="40.416" fill="#5e1914" width="5.716" height="5.716" data-fill-palette-color="accent"></rect><rect x="80.349" y="52.464" fill="#5e1914" width="5.716" height="5.716" data-fill-palette-color="accent"></rect><path fill="#5e1914" d="M52.324 50.356c-0.188 0-0.375-0.048-0.546-0.142-0.354-0.199-0.572-0.572-0.572-0.975V26.271c0-0.404 0.218-0.777 0.572-0.975 0.354-0.194 0.786-0.19 1.13 0.024l18.704 11.483c0.332 0.203 0.532 0.563 0.532 0.951 0 0.389-0.201 0.749-0.532 0.951L52.909 50.19C52.73 50.301 52.527 50.356 52.324 50.356zM53.442 28.268v18.974l15.45-9.488L53.442 28.268z" data-fill-palette-color="accent"></path><path fill="#5e1914" d="M81.978 8.301c4.025 0 7.3 3.275 7.3 7.3V59.3c0 4.025-3.275 7.3-7.3 7.3H38.279c-4.025 0-7.3-3.275-7.3-7.3V15.601c0-4.025 3.275-7.3 7.3-7.3H81.978M81.978 6.066H38.279c-5.266 0-9.535 4.269-9.535 9.535V59.3c0 5.266 4.269 9.535 9.535 9.535h43.699c5.266 0 9.535-4.269 9.535-9.535V15.601C91.512 10.335 87.243 6.066 81.978 6.066L81.978 6.066z" data-fill-palette-color="accent"></path><path fill="#5e1914" d="M74.63 71.069h-2.299l0.225 0.924c0.478 1.957 0.164 3.985-0.884 5.706-1.048 1.722-2.704 2.931-4.661 3.409l-38.573 9.386c-1.953 0.474-3.98 0.164-5.706-0.886-1.722-1.047-2.931-2.704-3.409-4.661l-9.383-38.57c-0.478-1.957-0.161-3.985 0.886-5.706 1.047-1.722 2.704-2.931 4.661-3.409l11.023-2.682V32.28l-11.551 2.809c-2.538 0.618-4.683 2.187-6.043 4.419-1.357 2.23-1.765 4.858-1.148 7.396l9.386 38.57c0.615 2.538 2.184 4.683 4.417 6.043 1.552 0.943 3.293 1.429 5.065 1.429 0.775 0 1.558-0.094 2.331-0.284l38.573-9.386c2.538-0.615 4.683-2.184 6.04-4.417 1.36-2.23 1.765-4.858 1.148-7.396L74.63 71.069z" data-fill-palette-color="accent"></path></svg></g></svg></g></svg></g><defs></defs></svg><rect width="395.52" height="120.55831620632351" fill="none" stroke="none" visibility="hidden"></rect></g></svg></g></svg>