<svg width="30" height="27" viewBox="0 0 30 27" fill="none" xmlns="http://www.w3.org/2000/svg">
<g filter="url(#filter0_d_1_137)">
<path d="M25.7447 3.25223C25.6155 3.04218 25.3792 2.92312 25.1333 2.94445L24.0442 3.03933L25.0852 0.940821C25.2092 0.690885 25.1602 0.389758 24.9634 0.19195C24.7666 -0.00585837 24.4658 -0.0562809 24.2153 0.0664053L21.4601 1.41574C19.7579 0.517093 17.6312 0.783837 16.1678 2.11688C14.9465 3.22941 14.3046 4.94032 14.4243 6.64649C11.2322 6.32656 8.53016 4.49944 6.93243 1.54721C6.82642 1.35137 6.62768 1.22326 6.40555 1.20752C6.183 1.19204 5.9686 1.29066 5.8361 1.4697C4.84514 2.80841 4.77561 4.64393 5.55247 6.154C5.33832 6.09991 5.11044 6.02671 4.85773 5.94229C4.64124 5.86989 4.40256 5.91627 4.22881 6.06438C4.05506 6.21249 3.97154 6.44075 4.00869 6.66603C4.31609 8.5297 5.40286 9.96201 7.11962 10.8098C6.89608 10.8877 6.66799 10.9509 6.43605 10.9992C6.20561 11.0472 6.01902 11.2158 5.948 11.4403C5.87697 11.6646 5.93251 11.9099 6.09333 12.0818C7.32962 13.4033 9.11548 14.0537 10.384 14.3657C8.94169 15.4952 7.38478 15.6842 5.12242 15.6065C4.86054 15.5986 4.61927 15.7461 4.50916 15.9835C4.39911 16.2209 4.44181 16.5012 4.61769 16.6951C5.56078 17.7346 8.99676 18.9068 12.6088 18.9947C12.7516 18.9981 12.8973 19 13.0461 19C15.5822 19 18.934 18.4563 21.3398 16.0505C23.1607 14.2296 24.2997 12.1333 24.725 9.82008C25.0685 7.95176 24.8514 6.45564 24.7471 5.73659C24.7394 5.68373 24.7312 5.62764 24.7246 5.57858L25.7433 3.93665C25.8732 3.7272 25.8738 3.46229 25.7447 3.25223ZM23.4579 5.9236C23.6512 7.25557 24.2392 11.3088 20.4187 15.1294C18.1979 17.3501 14.9632 17.7489 12.6404 17.6925C10.6584 17.6443 8.88564 17.2652 7.60076 16.8329C8.12243 16.7689 8.58733 16.6702 9.02616 16.5338C10.2359 16.1578 11.2579 15.4812 12.2424 14.4045C12.4065 14.2251 12.4569 13.9692 12.3733 13.7409C12.2896 13.5126 12.0857 13.3499 11.8445 13.319C11.2235 13.2394 9.35731 12.9252 7.88781 11.9116C8.31128 11.7384 8.7197 11.5216 9.10968 11.263C9.32361 11.121 9.43427 10.8667 9.39212 10.6134C9.35002 10.3602 9.16313 10.1552 8.91477 10.0901C7.71201 9.77478 6.26043 9.0692 5.59107 7.49412C6.01851 7.56903 6.48328 7.58716 6.97897 7.47603C7.20873 7.42459 7.39284 7.2531 7.46041 7.02752C7.52803 6.80194 7.46865 6.55742 7.30509 6.38807C6.47223 5.52543 6.16078 4.28227 6.42799 3.21849C7.30309 4.49744 8.41174 5.5738 9.68195 6.3696C11.3069 7.38765 13.2034 7.95027 15.1666 7.99647C15.3663 8.00069 15.558 7.9135 15.6852 7.75873C15.8123 7.60401 15.8612 7.39938 15.8177 7.20387C15.4799 5.68544 15.9617 4.06672 17.045 3.07989C18.1687 2.0563 19.8293 1.90102 21.0834 2.70254C21.2748 2.82492 21.5164 2.83862 21.7206 2.73863L23.0661 2.07964L22.3618 3.49936C22.2572 3.7103 22.2746 3.96131 22.4073 4.15579C22.5399 4.35027 22.7669 4.45824 23.0018 4.43763L23.9507 4.355L23.5136 5.05951C23.3669 5.29597 23.3973 5.50576 23.4579 5.9236Z" fill="#FBFAF3"/>
</g>
<defs>
<filter id="filter0_d_1_137" x="0" y="0" width="29.8411" height="27" filterUnits="userSpaceOnUse" color-interpolation-filters="sRGB">
<feFlood flood-opacity="0" result="BackgroundImageFix"/>
<feColorMatrix in="SourceAlpha" type="matrix" values="0 0 0 0 0 0 0 0 0 0 0 0 0 0 0 0 0 0 127 0" result="hardAlpha"/>
<feOffset dy="4"/>
<feGaussianBlur stdDeviation="2"/>
<feComposite in2="hardAlpha" operator="out"/>
<feColorMatrix type="matrix" values="0 0 0 0 0 0 0 0 0 0 0 0 0 0 0 0 0 0 0.25 0"/>
<feBlend mode="normal" in2="BackgroundImageFix" result="effect1_dropShadow_1_137"/>
<feBlend mode="normal" in="SourceGraphic" in2="effect1_dropShadow_1_137" result="shape"/>
</filter>
</defs>
</svg>
